<svg xmlns="http://www.w3.org/2000/svg" width="245.37" height="66.187" viewBox="0 0 245.37 66.187">
    <defs>
        <style>.a{fill:#505459;}.b{fill:#0176ff;}</style>
    </defs>
    <g transform="translate(-148 -324)">
        <g transform="translate(243 332.84)">
            <path class="a" fill="#505459"
                d="M872.078,686.041a1.438,1.438,0,0,1-.436-1.059V644.448a1.58,1.58,0,0,1,.4-1.121,1.416,1.416,0,0,1,1.09-.436h5.6a1.494,1.494,0,0,1,1.557,1.557v14.57l13.885-15.006a3.012,3.012,0,0,1,2.429-1.121h6.351a1.3,1.3,0,0,1,.9.373,1.221,1.221,0,0,1,.4.934,1.02,1.02,0,0,1-.311.747l-16.936,18.8L905.2,684.36a1.658,1.658,0,0,1,.249.809,1.267,1.267,0,0,1-.374.934,1.2,1.2,0,0,1-.872.374h-6.538a2.676,2.676,0,0,1-1.868-.53c-.373-.352-.582-.55-.622-.591L880.3,668.918v16.065a1.442,1.442,0,0,1-.436,1.059,1.518,1.518,0,0,1-1.121.436h-5.6a1.439,1.439,0,0,1-1.058-.436"
                transform="translate(-871.642 -642.268)" />
            <path class="a" fill="#505459"
                d="M1028.5,738.835a1.149,1.149,0,0,1-.405-.872,2.5,2.5,0,0,1,.249-1l5.363-12.828-11.955-28.206a2.345,2.345,0,0,1-.249-.871,1.653,1.653,0,0,1,.436-.965,1.22,1.22,0,0,1,.934-.4h5.168a1.684,1.684,0,0,1,1.619,1.183l8.281,20.3,8.406-20.3a1.916,1.916,0,0,1,1.743-1.183h5.044a1.269,1.269,0,0,1,.934.373,1.2,1.2,0,0,1,.374.872,2.508,2.508,0,0,1-.249,1l-18.064,42.092a1.764,1.764,0,0,1-1.744,1.183h-4.981a1.3,1.3,0,0,1-.9-.374"
                transform="translate(-988.443 -681.862)" />
            <path class="a" fill="#505459"
                d="M1195.791,683.842a1.438,1.438,0,0,1-.436-1.058v-41.22a1.415,1.415,0,0,1,.436-1.09,1.5,1.5,0,0,1,1.058-.4h5.231a1.395,1.395,0,0,1,1.494,1.495v41.22a1.5,1.5,0,0,1-.4,1.058,1.416,1.416,0,0,1-1.09.436h-5.231a1.438,1.438,0,0,1-1.058-.436"
                transform="translate(-1123.937 -640.069)" />
            <path class="a" fill="#505459"
                d="M1266.243,723.217a10.558,10.558,0,0,1-4.172-3.456,8.459,8.459,0,0,1,1.9-11.644,20.558,20.558,0,0,1,9.4-3.549l8.53-1.245v-1.307a5.493,5.493,0,0,0-1.37-4.047,5.967,5.967,0,0,0-4.358-1.37,6.37,6.37,0,0,0-3.3.747,10.482,10.482,0,0,0-2.024,1.526l-1.027,1.027a.942.942,0,0,1-.934.747h-4.857a1.372,1.372,0,0,1-.965-.374,1.286,1.286,0,0,1-.4-1,6.583,6.583,0,0,1,1.525-3.518,11.917,11.917,0,0,1,4.515-3.424,17.358,17.358,0,0,1,7.534-1.463q7.346,0,10.71,3.3a11.587,11.587,0,0,1,3.362,8.655v19.551a1.5,1.5,0,0,1-.4,1.059,1.416,1.416,0,0,1-1.089.436h-5.168a1.488,1.488,0,0,1-1.495-1.495v-2.429a10.21,10.21,0,0,1-3.86,3.269,13.586,13.586,0,0,1-6.226,1.276,13.233,13.233,0,0,1-5.822-1.276m13.543-6.943q2.179-2.241,2.179-6.476v-1.245l-6.226,1q-7.161,1.121-7.161,4.795a3.483,3.483,0,0,0,1.65,3.082,7.01,7.01,0,0,0,3.954,1.09,7.476,7.476,0,0,0,5.6-2.242"
                transform="translate(-1174.745 -679.663)" />
            <path class="a" fill="#505459"
                d="M1429.614,723.061a12.478,12.478,0,0,1-4.7-3.332,5.625,5.625,0,0,1-1.526-3.269,1.289,1.289,0,0,1,.405-1,1.372,1.372,0,0,1,.965-.374h5.106a1.078,1.078,0,0,1,.872.5q.311.25,1.4,1.183a8.281,8.281,0,0,0,2.491,1.463,8.646,8.646,0,0,0,3.082.529,7.583,7.583,0,0,0,4.047-.965,3.076,3.076,0,0,0,1.557-2.771A2.878,2.878,0,0,0,1442.6,713a6.463,6.463,0,0,0-2.553-1.432,49.5,49.5,0,0,0-5.51-1.463q-5.293-1.121-7.814-3.424a7.867,7.867,0,0,1-2.522-6.1,8.248,8.248,0,0,1,1.495-4.7,10.763,10.763,0,0,1,4.452-3.611,16.382,16.382,0,0,1,7.067-1.4,18.053,18.053,0,0,1,7.285,1.339,12.638,12.638,0,0,1,4.639,3.207,5.445,5.445,0,0,1,1.588,3.3,1.382,1.382,0,0,1-1.37,1.37h-4.67a1.242,1.242,0,0,1-1.059-.5q-.436-.311-1.4-1.152a7.977,7.977,0,0,0-2.148-1.339,7.381,7.381,0,0,0-2.865-.5,5.561,5.561,0,0,0-3.549,1,3.187,3.187,0,0,0-1.245,2.615,2.913,2.913,0,0,0,.591,1.868,5.468,5.468,0,0,0,2.4,1.4,37.661,37.661,0,0,0,5.417,1.339q11.208,2.181,11.208,9.776a8.424,8.424,0,0,1-3.829,7.161q-3.83,2.741-10.679,2.739a19.245,19.245,0,0,1-7.907-1.432"
                transform="translate(-1301.659 -679.662)" />
        </g>
        <path class="b" fill="#0176ff"
            d="M518.843,662H510.1a4.089,4.089,0,0,1,0-8.178h6.963l-22.14-44.286-9.979,19.96L496.541,652l.023.045A6.88,6.88,0,0,1,490.411,662l-19.4,0a7.079,7.079,0,0,1-6.332-10.245l11.1-22.2-3.171-6.154L454.541,659.73a4.089,4.089,0,1,1-7.323-3.64l19.209-38.634a6.879,6.879,0,0,1,12.3-.035l1.582,3.07,8.287-16.577a7.079,7.079,0,0,1,12.663,0l23.917,47.842A7.079,7.079,0,0,1,518.843,662m-38.426-23.442-7.631,15.264,15.5,0Z"
            transform="translate(-298.79 -276)" />
    </g>
</svg>