<svg xmlns="http://www.w3.org/2000/svg" width="376.849" height="238.285"
    viewBox="0 0 376.849 238.285">
    <path class="a" fill="#b0bac9" stroke="#b0bac9" stroke-miterlimit="10"
        d="M-245.479,301.712h0c-1.76-1.259-2.671-3.541-3.552-5.748a25.668,25.668,0,0,0-1.4-3.112,1.268,1.268,0,0,0,0,.41,1.262,1.262,0,0,1-.017.492,7.015,7.015,0,0,1-1.183-1.782,11.914,11.914,0,0,0-.7-1.195c-.041.127-.066.233-.09.336a1.754,1.754,0,0,1-.2.547c-.993-3.79-1.485-3.849-3.115-4.044a11.985,11.985,0,0,1-2.6-.552,9.265,9.265,0,0,1-2.02-1.338,6.9,6.9,0,0,0-2.308-1.428c-.331-.034-.548-.049-.705-.049-.34,0-.4.07-.526.21a2.505,2.505,0,0,1-1.07.689,2.851,2.851,0,0,0-1.122.923c-.294.353-.547.658-1.013.658a2.04,2.04,0,0,1-.848-.236c-1.4-.661-1.789-4.243-2.05-6.613-.087-.787-.161-1.467-.254-1.875a15.077,15.077,0,0,0-.561-1.716c-.723-1.965-1.623-4.411.206-5.438a13.009,13.009,0,0,1,.781,2.354c.147.562.3,1.143.5,1.688a3.808,3.808,0,0,1,2.307-.72,10.634,10.634,0,0,1,2.129.293l.03.006a11.1,11.1,0,0,0,2.225.3,4.754,4.754,0,0,0,1.341-.182,12.09,12.09,0,0,1,.605,2.477c.4,2.223.847,4.743,2.943,5.158a2.245,2.245,0,0,0,.432.045c1.479,0,1.86-1.772,2.2-3.335.081-.379.158-.737.249-1.069,1.252-4.616.591-9.341-.049-13.91q-.09-.643-.179-1.288c-.437.6-.863.892-1.3.892-.913,0-1.712-1.287-2.484-2.532a7.541,7.541,0,0,0-1.6-2.083,5.623,5.623,0,0,0-2.29-.808,4.1,4.1,0,0,1-2.55-1.155c-1.162-1.276-2.484-8.1-2.33-10.208l-.015,0c-.31-.1-.6-.187.7-5.014-.4,1.732.637,2.587,1.735,3.492.309.255.628.518.924.806a11.339,11.339,0,0,1,1.213,1.369c.223.292.315.412.5.412a2.323,2.323,0,0,0,.619-.169c.384-.133.964-.334,1.9-.57a1.614,1.614,0,0,0,1.641,1.2,6.584,6.584,0,0,0,1.106-.133l.01,0a6.693,6.693,0,0,1,1.134-.135,2.5,2.5,0,0,1,.319.019,2.742,2.742,0,0,1,1.289.649,1.986,1.986,0,0,0,1.126.539,1.9,1.9,0,0,0,1.326-.82,52.654,52.654,0,0,0,2.744,10.3c1.428,4.188,2.9,8.518,2.952,13.266a4.06,4.06,0,0,0-1.9-3.05c-1.49,3.773-2.3,8.963-.1,12.214a4.378,4.378,0,0,1,.822-.524,4.047,4.047,0,0,0,1.131-.78c.122,2.266.414,4.638.7,6.932.612,4.979,1.245,10.124.3,14.94Zm109.058-2.636a17.743,17.743,0,0,0-2.031-4.5c-.729-1.219-1.56-2.516-2.693-4.2a11.07,11.07,0,0,0-3.684-3.172c-.675-.386-1.39-.744-2.081-1.091-.779-.391-1.583-.794-2.358-1.248a14.729,14.729,0,0,1-2.113-1.469,20.964,20.964,0,0,1-1.842-1.78,15.365,15.365,0,0,1-1.592-2.042,5.954,5.954,0,0,1-1-2.552,2.195,2.195,0,0,1,.03-.7c.007-.052.015-.1.021-.152a1.57,1.57,0,0,1,.067-.206c.013-.033.025-.066.037-.1l.053-.148.013-.036.039-.084s0-.005.008-.011l.013-.021.055-.086a2.159,2.159,0,0,1,1.314-1,4.572,4.572,0,0,1,1.1-.138c.089,0,.181-.007.269-.012a2.185,2.185,0,0,0,.463-.067c.023-.013.043-.023.06-.031.049-.023.075-.036.089-.085.021-.011.035-.057.049-.122a.459.459,0,0,0,.032-.18,2.177,2.177,0,0,0,0-.532,3.228,3.228,0,0,0-.246-1.013,11.92,11.92,0,0,0-1.109-2.087c-.706-1.1-1.491-2.133-2.322-3.226q-.3-.389-.593-.782a29.914,29.914,0,0,0-3.294-3.6c-1.134-1.084-2.353-2.14-3.532-3.161l-.174-.151-3.764-3.3-3.755-3.316L-172.764,251c-.219-.2-.432-.384-.639-.565-.4-.351-.815-.712-1.277-1.165-.5-.518-.967-1.035-1.42-1.535-.668-.739-1.3-1.437-1.981-2.084a7.24,7.24,0,0,0-1.739-1.277,1.2,1.2,0,0,0-.392-.142.422.422,0,0,0-.18-.037h-.13a.146.146,0,0,0-.043-.007.187.187,0,0,0-.088.027.177.177,0,0,1-.085.028h-.015a.869.869,0,0,0-.088.063.663.663,0,0,1-.148.095l-1.186.488-.435-.709a19.643,19.643,0,0,1-1.248-2.524c-.123-.282-.239-.549-.36-.815a11.4,11.4,0,0,0-.759-1.452,5.138,5.138,0,0,0-.427-.6,2.916,2.916,0,0,0-.228-.258l-.04-.043-.069-.074-.05-.048-.139-.13a15.016,15.016,0,0,0-2.1-1.492l0,0c-.225-.143-.459-.29-.691-.442a15.642,15.642,0,0,1-1.551-1.132,11.771,11.771,0,0,1-1.373-1.394c-.889-1.032-1.709-2.1-2.5-3.131-.666-.866-1.294-1.684-1.961-2.484a24.671,24.671,0,0,0-2.335-2.491,16.337,16.337,0,0,0-1.28-1.038c-.07-.048-.144-.089-.215-.129s-.117-.066-.173-.1c-.022.036-.044.073-.064.109s-.048.083-.072.121a3.23,3.23,0,0,1-1.648,1.22,2.854,2.854,0,0,1-.77.1,3.581,3.581,0,0,1-1.273-.248,6.421,6.421,0,0,1-1.408-.816,17.321,17.321,0,0,1-2.061-1.9l-.018-.019c-.26-.273-.512-.546-.756-.81-.355-.385-.691-.748-1.038-1.1a11.644,11.644,0,0,0-1.8-1.556c-.148-.1-.3-.186-.429-.257a1.567,1.567,0,0,0-.179-.088l-.018-.008c-.1.006-.242.022-.411.041-.222.025-.469.053-.71.07-.166.011-.3.016-.432.016s-.288-.006-.431-.019a3.247,3.247,0,0,1-.584-.114l-.078-.025-.04-.014-.117-.044-.208-.1a6.053,6.053,0,0,1-1.366-.929,17.132,17.132,0,0,1-1.485-1.529c-.146-.164-.284-.319-.424-.472a10.557,10.557,0,0,0-.808-.82c-.034-.034-.1-.083-.156-.131l-.083-.067a1.013,1.013,0,0,0-.114-.084l-.083-.058a3.583,3.583,0,0,0-.34-.218l-.127-.076a19.008,19.008,0,0,0-2.255-1.017l-.175-.072a14.927,14.927,0,0,1-2.4-1.161l-.359-.242-.261-.2c-.173-.143-.295-.259-.423-.383l-.007-.007c-.056-.054-.113-.109-.175-.166a8.774,8.774,0,0,1-.958-1.188,19.246,19.246,0,0,1-2.241-5.135c-.159-.5-.309-1.01-.455-1.5-.154-.517-.313-1.052-.476-1.564a12.061,12.061,0,0,0-.381,1.291l0,.008q-.049.188-.1.386a11.266,11.266,0,0,1-.361,1.148c-.089.215-.191.458-.269.607l-.125.24c-.053.1-.083.15-.115.2-.017.027-.033.053-.053.087a18.956,18.956,0,0,1-1.305,1.883c-.772,1-1.591,1.937-2.383,2.846l-.019.022-.417.48-1.41,1.652a16.91,16.91,0,0,1-1.643,1.607,42.554,42.554,0,0,1-4.428,3.2c-.937.617-1.823,1.2-2.678,1.831-.413.3-.819.628-1.248.975l-.42.338-.125.1a8.1,8.1,0,0,1-1.963,1.222,3.2,3.2,0,0,1-1.111.211,2.535,2.535,0,0,1-.533-.055,2.746,2.746,0,0,1-1.051-.477l-.026.021c-.015.011-.03.023-.045.036-.021-.044-.046-.088-.071-.13l-.033-.056-.057-.045-.005,0c-.039-.03-.078-.061-.115-.091a6.532,6.532,0,0,1-.715-.783c-.264.379-.507.746-.742,1.12l-1.47,2.4c-.865,1.42-1.94,3.187-3.116,4.816a18.506,18.506,0,0,1-4.059,4.324,7.515,7.515,0,0,1-1.4.771,4.837,4.837,0,0,1-1.651.361c-.073.005-.149.008-.224.008a4.53,4.53,0,0,1-1.479-.284c-.191-.075-.375-.169-.553-.26l-.207-.1a20.852,20.852,0,0,0-1.657,3.112l-.143.307a21.329,21.329,0,0,1-1.148,2.2,9.462,9.462,0,0,1-.737,1.047c-.259.315-.51.6-.839.94a33.952,33.952,0,0,1-7.356,5.564,18.04,18.04,0,0,0,1.688,2.691q.217.3.438.6l.012.017c.588.808,1.2,1.644,1.743,2.519a14.558,14.558,0,0,1,.925,1.726,6.881,6.881,0,0,1,.553,1.925,4.043,4.043,0,0,1,.017,1.055,2.978,2.978,0,0,1-.133.666c-.026.092-.056.2-.086.318a4.757,4.757,0,0,1-1.244,1.594l-.009.009c-.662.606-1.379,1.142-2.072,1.661-.308.23-.624.467-.928.7-.321.249-.623.529-.915.8-.16.148-.324.3-.493.45l-1.408,1.277-5.647,5.088,5.407-5.339,1.358-1.33c.156-.148.314-.3.466-.455l0,0c.293-.29.6-.591.918-.859.306-.255.617-.506.919-.747.7-.56,1.357-1.089,1.968-1.689a4.315,4.315,0,0,0,1.039-1.389c.012-.073.034-.166.058-.265a2.41,2.41,0,0,0,.1-.6c0-.035,0-.07,0-.1v-.015a2.93,2.93,0,0,0-.053-.717,6.089,6.089,0,0,0-.551-1.693,13.711,13.711,0,0,0-.925-1.588c-.552-.822-1.182-1.628-1.79-2.408q-.236-.3-.471-.605l-.157-.205a15.319,15.319,0,0,1-1.983-3.1l-.186-.422.42-.268c.746-.475,1.392-.9,1.976-1.3a13.994,13.994,0,0,1-3.341,1.141c1.134-2.253,2.473-4.416,3.768-6.509a65.947,65.947,0,0,0,4.844-8.811c1.963-4.615,2.343-4.78,4.165-5.575A23.291,23.291,0,0,0-266.909,224c8.6-4.938,13.968-15.021,18.327-24.084a11.419,11.419,0,0,0,1.556,1.027,7.819,7.819,0,0,1,2.688,2.174c3.687-4.07,5.741-8.924,7.727-13.619a78.576,78.576,0,0,1,3.445-7.417,15.617,15.617,0,0,1,2.658-3.239c2.038-2.074,3.963-4.034,2.967-7.624,2.279-1.029,4.467-3.946,6.583-6.768,1.018-1.357,1.979-2.639,2.943-3.712l.033-.043.024-.031a17,17,0,0,1,2.02-2.073,39.229,39.229,0,0,0,5.018-6.361,30.326,30.326,0,0,0,1.269-5.2l0-.012q.059-.325.119-.649a16.024,16.024,0,0,1,2.034-4.915,17.7,17.7,0,0,0,1.887-4.261c.093-.368.179-.713.26-1.04.922-3.7,1.232-4.953,4.26-8.274a14.33,14.33,0,0,0,2.967-5.841c.207-.655.422-1.332.674-2,.032-.409.072-.9.125-1.411l-.032.025c-.124.1-.253.2-.382.314-.233.2-.463.429-.707.666a14.611,14.611,0,0,1-1.663,1.452,5.38,5.38,0,0,1-1.75.838,4.383,4.383,0,0,1-1.016.156l-.073.006-.094,0c-.064,0-.117,0-.169-.006s-.09-.005-.141-.006l-.19-.01-.095,0-.107-.009-.016,0-.031-.005-.064-.012a4.43,4.43,0,0,1-1.913-.743,6.461,6.461,0,0,1-1.343-1.291c-.182-.228-.345-.444-.5-.652a5.742,5.742,0,0,0-1.3-1.4,13.892,13.892,0,0,0-2.436-1.272l-.385-.161a10.4,10.4,0,0,1-2.577-1.382,10.006,10.006,0,0,1-2.254-2.565c-1.228-1.866-2.27-3.75-3.127-5.346-.949-1.773-1.89-3.607-2.8-5.451-1.691-3.43-3.351-6.973-5.074-10.831l-3.163-2.759-1.675-1.461-.838-.732c-.1-.091-.2-.176-.3-.259-.177-.151-.359-.308-.56-.5a13.8,13.8,0,0,1-1.595-1.8c-.431-.561-.85-1.166-1.319-1.905a41.4,41.4,0,0,1-2.157-3.863c-1.389-1.756-2.893-3.541-4.47-5.306-1.317-1.465-2.678-2.863-4.043-4.154a7.355,7.355,0,0,1-1.826,5.1c-.262.372-.532.755-.778,1.152l.215.014c-1.255,3.051-.887,7.5-.562,11.428a34.633,34.633,0,0,1,.19,5.953c-.007.063-.015.14-.025.23l0,.027a15.988,15.988,0,0,1-.758,4.061,2.7,2.7,0,0,1-1.77,1.077,2.706,2.706,0,0,0-1.891,1.243c-.643,1.016-.34,2.857-.073,4.482a11.766,11.766,0,0,1,.253,2.5,10.555,10.555,0,0,1-.736,2.96,15.779,15.779,0,0,0-.647,2.109c-1.761.128-2.812,1.773-3.829,3.364a11.891,11.891,0,0,1-1.436,1.962c-.5.5-1.019.986-1.525,1.458-2.206,2.062-4.486,4.193-5.06,7.478-.5,2.888,1.255,4.5,3.118,6.216.27.249.55.505.824.767a10.656,10.656,0,0,0,1.28,1.065c.634.457.731.527,1.376,2.571.105.334.192.7.276,1.053.284,1.2.552,2.333,1.506,2.333a2.845,2.845,0,0,0,1.48-.6c2.187,2.4,2.113,7.73,2.059,11.622v.006c-.011.764-.021,1.486-.012,2.114.009.694.035,1.462.063,2.274.057,1.7.117,3.452.028,4.7a18.008,18.008,0,0,1-.77,3.582,18.659,18.659,0,0,0-.814,3.88c-.375,6.047,1.028,16.848,6.43,21.821-.038.139-.079.2-.134.2s-.106-.048-.177-.108a.9.9,0,0,0-.317-.2l-2.546-1.675a12.73,12.73,0,0,1-3.839-5.248c.234,4.882.6,9.892,2.243,12.81-8.819-3.244-12.955-8.862-15.839-13.93.156.757.3,1.525.44,2.268q.064.341.129.682c-.2-.554-.391-1.119-.58-1.665l-.008-.023c-.311-.9-.634-1.838-.972-2.747-.16-.421-.325-.841-.491-1.249-.3-.586-.6-1.174-.9-1.743l-.006-.011c-.282-.552-.574-1.123-.86-1.676-.036-.049-.072-.1-.107-.151-.067-.1-.135-.193-.2-.274a9.623,9.623,0,0,0-.72-.8c-.322-.324-.667-.627-1.033-.948l0,0c-.222-.195-.452-.4-.682-.608a7.827,7.827,0,0,1-1.643-2.009,8.209,8.209,0,0,1-.841-2.449c-.151-.686-.28-1.369-.4-2.03-.168-.89-.325-1.728-.528-2.539a13.786,13.786,0,0,0-.694-2.069c-.14-.344-.309-.674-.488-1.024-.171-.334-.347-.678-.522-1.077l-.928-2.141a8.422,8.422,0,0,0-1.008-1.75,6.782,6.782,0,0,0-1.53-1.334l-.2-.136a10.408,10.408,0,0,1-1.831-1.5l-.2-.219c-.192.265-.386.549-.573.823l-.1.142a4.849,4.849,0,0,0,.163,1.827,6.32,6.32,0,0,1,.189,2.342,5.206,5.206,0,0,1-1.883,3.04c-.272.265-.552.539-.84.852a11.737,11.737,0,0,0-2.063,3.538,11.718,11.718,0,0,1-2.053,3.524c2.823-.684,5.642-1.134,8.369-1.57l.018,0c.778-.124,1.582-.253,2.378-.385a8.87,8.87,0,0,0,1.025,3.838,8.4,8.4,0,0,1,1.017,4.52,7.633,7.633,0,0,1-1.021,2.76,5.341,5.341,0,0,0-.9,3.413c.066.5.386.663.724.835a1.313,1.313,0,0,1,.864,1.479,2.445,2.445,0,0,1-1.329,2.339l-.3.236a5.432,5.432,0,0,1-1.718.92,4.823,4.823,0,0,0-2.09,1.321,6.446,6.446,0,0,0-.942,1.347,6.682,6.682,0,0,1-1.1,1.537,5.187,5.187,0,0,0,1.678,1.969,5.959,5.959,0,0,1,1.511,1.613,12.818,12.818,0,0,1,1.136,3.263,13.266,13.266,0,0,0,1.167,3.352c2.5,4.4,4.9,9.05,5.477,13.272a43.28,43.28,0,0,1-.491,14.9c-.156.642-.285,1.369-.423,2.138a21.933,21.933,0,0,1-.83,3.567,11.374,11.374,0,0,1-2.532,3.5,13.758,13.758,0,0,0-2.144,2.715,74.288,74.288,0,0,0,2.538-12.157c.4-2.657.823-5.4,1.4-7.943a10.733,10.733,0,0,0-.9-4.093,6.406,6.406,0,0,1-1.857,2.571c-.143-.738-.257-1.946-.39-3.346a58.362,58.362,0,0,0-1.214-8.392c-.786-3.088-1.884-4.589-3.356-4.589a2.436,2.436,0,0,0-.658.1,26.116,26.116,0,0,1-.717-3.149,14.732,14.732,0,0,0-1.571-5.031,3.466,3.466,0,0,1-1.234.812,3.091,3.091,0,0,0-.725.417c-1.193-2.937.185-5.593,1.519-8.162a18.457,18.457,0,0,0,1.627-3.766l-.038.015a.359.359,0,0,1-.062.021,7.893,7.893,0,0,0,.2-.97c.033-.2.066-.4.108-.592a6.163,6.163,0,0,1-.212,1.525c.7-.216,1.887-1.366,3.166-3.077A16.045,16.045,0,0,0-286.192,176c.489-1.75-.392-5.615-1.571-6.891a29.652,29.652,0,0,0-10.031,6.656c0-.194.007-.384.01-.573.04-2.063.075-3.844-1.057-5.674a5.655,5.655,0,0,1-.516.274,4.231,4.231,0,0,0-.7.4,15.408,15.408,0,0,1,1.645-4.836,14.464,14.464,0,0,0,1.652-5.041c2.81-.569,7.26-7.061,7.57-8.524l-.087.126c-.421.614-.855,1.248-1.354,1.9a11.782,11.782,0,0,1-1.782,1.865,12.55,12.55,0,0,1-2.109,1.393c-.355.2-.709.385-1.052.566l-.007,0a12.046,12.046,0,0,0-2.682,1.712,6.22,6.22,0,0,0-1.172,1.6c-.221.414-.429.9-.648,1.4l0,.008c-.091.211-.184.428-.279.641a41.339,41.339,0,0,1-4.559,8.311,18.927,18.927,0,0,1-1.549,1.829,15.051,15.051,0,0,1-1.783,1.607,12.483,12.483,0,0,1-2.05,1.233l-.174.069-.041.016c-.295.118-.6.239-.9.34l-.615.145c-.87.57-1.795,1.134-2.826,1.723a20.95,20.95,0,0,1,2.979,7.3c.736,2.946,1.273,6.232,1.792,9.409a86.9,86.9,0,0,0,1.768,9c.295.318.608.665.905,1.051a9.662,9.662,0,0,1,1.668,3.636,32.3,32.3,0,0,1,.664,4.217c.124,1.1.251,2.246.476,3.356l.025.129-.1-.067a1.1,1.1,0,0,1-.461-.671,1.054,1.054,0,0,0,.39.483,29.753,29.753,0,0,1-.914-3.536,27.053,27.053,0,0,0-.96-3.639,9.27,9.27,0,0,0-1.773-3.1,17.345,17.345,0,0,0-1.417-1.382c-.432-.391-.879-.8-1.31-1.246a9.376,9.376,0,0,1-2.1-3.545,19.415,19.415,0,0,1-.814-3.91c-.079-.64-.141-1.281-.2-1.9a21.548,21.548,0,0,0-.965-5.345,4.887,4.887,0,0,0-.251-.632l0-.006-.055-.121-.16-.365-.239-.411-.239-.411c-.008-.018-.059-.089-.112-.164-.039-.055-.078-.111-.106-.153-.156-.231-.332-.473-.523-.722-.575-.766-1.217-1.5-1.9-2.27l-.009-.01q-.246-.28-.495-.564a23.219,23.219,0,0,1-2.433-3.183,11.469,11.469,0,0,1-.94-1.9,5.637,5.637,0,0,1-.247-.75c-.031-.11-.062-.221-.094-.326-.066-.269-.1-.449-.147-.7-.017-.091-.036-.192-.059-.309-.039-.247-.075-.507-.109-.759v-.007c-.034-.246-.065-.474-.1-.682-.371-.452-.722-.876-1.073-1.3a4.1,4.1,0,0,0-.359-.228c-.217-.123-.472-.239-.768-.373a6.138,6.138,0,0,1-1.936-1.276,25.459,25.459,0,0,1-2.243-2.854l-.036-.051-.173-.244c-.222-.322-.431-.654-.633-.974-.106-.169-.227-.36-.345-.543a9.727,9.727,0,0,1-1.164,1.382,23.289,23.289,0,0,1-2.826,2.307l-2.876,1.991c-.968.686-1.97,1.327-2.94,1.947l-.008.005c-.583.377-1.178.752-1.754,1.114l-.009.006c-1.355.853-2.756,1.735-4.065,2.693a25.485,25.485,0,0,0-2.677,2.2c-.388.373-.828.8-1.215,1.237a15.826,15.826,0,0,0-1.083,1.351,15.269,15.269,0,0,1,.9-1.49,13.518,13.518,0,0,1,1.08-1.4,25.9,25.9,0,0,1,2.5-2.5c1.757-1.566,3.616-2.954,5.526-4.357l.013-.01c.911-.678,1.853-1.38,2.733-2.1.426-.351.886-.7,1.332-1.034l.069-.052,1.369-1.056a22.018,22.018,0,0,0,2.483-2.239,4.285,4.285,0,0,0,1.325-2.324l.007-3.02a3.181,3.181,0,0,0-.688-.777c-.1-.07-.2-.128-.318-.194a5.646,5.646,0,0,1-.737-.483l-.013-.011a3.115,3.115,0,0,1-.729-.8c-.04-.069-.068-.11-.092-.147a1.628,1.628,0,0,1-.165-.315c-.077-.172-.14-.328-.192-.478a5.837,5.837,0,0,1-.035-3.341,9.171,9.171,0,0,1,.345-1.1,1.27,1.27,0,0,0-.31-.037,2.136,2.136,0,0,0-1.1.354,7.071,7.071,0,0,0-1.334,1.067,31.183,31.183,0,0,0-2.545,3c-.656.841-1.334,1.711-2.059,2.5a15.078,15.078,0,0,0-1.848,3.012c-.277.584-.526,1.2-.767,1.793-.2.5-.414,1.02-.641,1.524a11.578,11.578,0,0,1-1.944,3.1,14.5,14.5,0,0,1-2.08,1.85c-.22.172-.448.349-.669.528a28.7,28.7,0,0,0-5.07,5.07,39.647,39.647,0,0,0-3.8,6.116A39.853,39.853,0,0,1-355.4,176.9a29.276,29.276,0,0,1,4.99-5.227c.216-.183.439-.365.655-.542l.005,0a14.96,14.96,0,0,0,1.995-1.842,11.274,11.274,0,0,0,1.821-3.02c.211-.489.407-1,.6-1.493.236-.612.478-1.243.756-1.857a15.646,15.646,0,0,1,1.864-3.157c.722-.811,1.375-1.682,2.006-2.525-.194.163-.338.278-.466.375a23.3,23.3,0,0,0-3.509,3.7,23.631,23.631,0,0,1-3.429,3.635,3.074,3.074,0,0,1-1.777.827c-.851,0-1.613-.757-2.548-2.533-.922.812-2.129,2.082-3.406,3.427-2.753,2.9-5.873,6.183-8.164,7.174a16.886,16.886,0,0,1,2.722-5.2,29.839,29.839,0,0,0,1.751-2.77,16.907,16.907,0,0,0,1.524-6.532,17.693,17.693,0,0,1,1.26-5.924,21.139,21.139,0,0,1,2.3-3.6,14.446,14.446,0,0,0,3.009-5.749c.235-1.076.373-2.219.506-3.325a20.845,20.845,0,0,1,1.2-5.614,3.315,3.315,0,0,0,.841.11c1.983,0,3.619-1.779,5-3.447.349,1.647-.1,4.1-.458,6.062-.112.611-.217,1.187-.289,1.685a26.74,26.74,0,0,1-3.78,9.751,22.96,22.96,0,0,1,3.4-1.213c2.546-.759,4.951-1.476,6.491-3.92,1.8-2.862,1.165-7.588.7-11.039q-.044-.327-.086-.639a1.71,1.71,0,0,1-.2.012,3.347,3.347,0,0,1-1.1-.248,3.006,3.006,0,0,0-.929-.221,2.059,2.059,0,0,1,1.293-1.535,2.506,2.506,0,0,0,1.29-1.232,6.635,6.635,0,0,0,.095-3.13c-.026-.223-.051-.434-.071-.64l-.136.169-.19-1.551a6.035,6.035,0,0,0-.887-2.3,14.439,14.439,0,0,0-.983-1.411,10.162,10.162,0,0,1-.758.746,5.715,5.715,0,0,0-.7.717l-.694.926-.557-1.066a3.87,3.87,0,0,0-1.534-1.594,12.571,12.571,0,0,0-1.876-.845l-.445-.174a9.141,9.141,0,0,1-2.551-1.4,6.17,6.17,0,0,1-1.77-2.5,11.185,11.185,0,0,1-.5-2.372c-.02-.149-.039-.3-.06-.443a8.024,8.024,0,0,0-.532-2.3,2.487,2.487,0,0,0-.6-.778c-.191-.178-.412-.355-.6-.5a15.244,15.244,0,0,1-.978,2.829c-.673,1.606-1.308,3.121-.912,4.5a5.087,5.087,0,0,1,.908-.815,4.406,4.406,0,0,0,1.1-1.062c.335,2.75-.8,4.776-1.994,6.922a27.705,27.705,0,0,0-1.341,2.618c-.185.434-.469.946-.769,1.487-.962,1.732-2.159,3.888-1.192,5.411a2.7,2.7,0,0,0,.927.334,5,5,0,0,1,1.821.727c2.8-1.448,4.608-3.615,6.526-5.91a35.532,35.532,0,0,1,4.014-4.288c-1.125,3.886-2.692,8.765-4.829,12.04a15.864,15.864,0,0,1-3.559,3.5,24.836,24.836,0,0,0-4.764,5.156l-.486.638a3.862,3.862,0,0,1-.011-.611,4.326,4.326,0,0,0,0-.551c-.518.512-1.06,3.214-1.539,5.6-.266,1.326-.517,2.578-.723,3.221a42.444,42.444,0,0,0-1.16,4.982,35.147,35.147,0,0,1-1.516,6,27.03,27.03,0,0,1,.306-6.75,27.424,27.424,0,0,0,.314-6.738,10.437,10.437,0,0,0-1.914,1.312,8.565,8.565,0,0,1-1.879,1.261,12.339,12.339,0,0,0,1.592-6.853,24.777,24.777,0,0,1,.268-3.884,6.885,6.885,0,0,1,.529-1.837c.289-.675.434-1.014-.1-2.96a7.91,7.91,0,0,0-.581-1.456,4.137,4.137,0,0,1-.5-2.891,5.017,5.017,0,0,0,.455.48c.287.287.643.645.8.85,1.866-2.982,1.954-6.138,2.046-9.479a28.1,28.1,0,0,1,.669-6.379,6.858,6.858,0,0,1,.872-1.821,6.464,6.464,0,0,0,.8-1.63,3.769,3.769,0,0,0-.1-2.044,3.933,3.933,0,0,1-.172-1.464c.2-1.623,1.9-3,2.816-3.736a5.646,5.646,0,0,0,.465-.4q-.036.3-.075.592a20.661,20.661,0,0,0-.247,3.532,4.562,4.562,0,0,0,1.882-.8,7.4,7.4,0,0,1,1.019-.564l-.1-.079c-.043-.032-.085-.064-.13-.1l-.026-.021a2.464,2.464,0,0,1-.649-.756,4.122,4.122,0,0,1-.294-.741l-.019-.061c-.028-.082-.052-.156-.074-.223l0-.013c-.2-.6-.2-.6-.636-.749-.092-.032-.206-.071-.345-.124-.348-.1-.712-.172-1.1-.248-.452-.089-.965-.191-1.525-.354l-.1-.033-.159-.063-.077-.034-.2-.113a2.094,2.094,0,0,1-.488-.435,5.115,5.115,0,0,1-.32-.44c-.042-.064-.078-.117-.109-.158-.094-.123-.129-.148-.151-.157l-.035-.013-.074-.014.016,0,.01,0h-.01a3.391,3.391,0,0,0-.664.206l-.321.115a3.54,3.54,0,0,1-.928.187c-.041,0-.085.006-.131.006a3.444,3.444,0,0,1-.818-.128l-.007,0a6.807,6.807,0,0,1-.94-.29.053.053,0,0,0,0,.018.045.045,0,0,1,0,.022l-.026-.018-.071-.055c-.125-.049-.286-.114-.417-.176a10.488,10.488,0,0,1-1.3-.7,25.856,25.856,0,0,1-2.125-1.547l-.117-.091A27.793,27.793,0,0,0-372.1,98.02c-.087.094-.178.185-.266.273-.06.06-.12.119-.178.18a7.353,7.353,0,0,1-2.125,3.017c.3-.25.687-.577,1.022-.893-.183.233-.373.468-.573.716l-.019.023a13.527,13.527,0,0,0-2.737,4.365,14.9,14.9,0,0,0,.148,2.317c.045.115.093.23.14.341a4.323,4.323,0,0,1,.418,1.532,8.976,8.976,0,0,1-.552,2.812,14.664,14.664,0,0,0-.474,1.835,44.277,44.277,0,0,0-.4,9.276,13.95,13.95,0,0,1-1.3,5.72c-.146.376-.295.762-.434,1.143a9.329,9.329,0,0,1-.263,2.389c-.19.685-.4,1.318-.6,1.907,0,.214.01.444.032.68-.023-.13-.048-.257-.07-.369l-.025-.126a16.177,16.177,0,0,0-1.076,4.766c-.075,1.64-.043,3.312-.013,4.929.032,1.724.066,3.5-.029,5.247h-.073a24.124,24.124,0,0,1-4.946-.955l-.007,0c-.45-.117-.875-.228-1.236-.314l-.449-.105c-1.407-.327-3.763-.875-4.636-1.648.039,1.231.019,2.563,0,3.852a43.912,43.912,0,0,0,.263,7.132c.121.777.271,1.52.417,2.238a23.835,23.835,0,0,1,.638,5.039c0,3.445,1.159,6.606,2.282,9.662a38.547,38.547,0,0,1,2.061,6.934c.278.808.484,1.473.649,2.091a10.7,10.7,0,0,1-2.39-3.176,28.181,28.181,0,0,1-5.005-6.91,38.77,38.77,0,0,0-3.127-4.816,36.248,36.248,0,0,1-2.7-4c-1.517-2.483-2.948-4.827-5.432-6.5a34.862,34.862,0,0,0,3.693,7.658A46.684,46.684,0,0,1-398.461,172a39.928,39.928,0,0,1,2.055,8.1c.145.805.3,1.638.459,2.455a32.914,32.914,0,0,1,3.088,8.847c.945,6.145,4.168,12.77,6.7,17.246-.625-1-1.321-1.98-2-2.924-.534-.748-1.086-1.522-1.6-2.3a50.416,50.416,0,0,0,2.936,6.02,114.344,114.344,0,0,1-7.885-9.5c-.79-1.025-1.6-2.082-2.417-3.113a19.959,19.959,0,0,1-2.411-4.313,25.521,25.521,0,0,0-1.744-3.386,17.844,17.844,0,0,0-2.255-2.669,11.807,11.807,0,0,1-2.945-4.087c-.5-1.347-.865-2.666-1.221-3.941-.822-2.942-1.6-5.721-3.793-8.431a17.511,17.511,0,0,0-5.118-3.962,22.268,22.268,0,0,1-4.068-2.823c-.907-.846-1.761-1.741-2.588-2.608A45.074,45.074,0,0,0-427,156.97l5.823-3.672-2.881-8.8a4.458,4.458,0,0,1-1.282-3.141,6.224,6.224,0,0,0-.328-1.78l-.383-.806.457-2.07a12.1,12.1,0,0,1,3.076-1.565,12.291,12.291,0,0,1,1.7-.423c.227-.034.47-.062.789-.089a4.342,4.342,0,0,1,.661-1.411,7.655,7.655,0,0,1,1.634-1.625c.555-.417,1.05-.758,1.709-1.179a8.561,8.561,0,0,1,2.063-.925,20.817,20.817,0,0,1,2.238-.512c.581-.11,1.129-.214,1.633-.357a5.534,5.534,0,0,0,1.458-.6,4.549,4.549,0,0,0,.856-1.171c.194-.317.369-.645.554-.992a11.6,11.6,0,0,1,1.7-2.561,15.582,15.582,0,0,1,3.335-2.483l.066-.04c.545-.331,1.039-.636,1.57-1.026a9.713,9.713,0,0,0,1.274-1.173c.464-.5.909-1.045,1.38-1.622l0,0h0c.36-.441.732-.9,1.127-1.348a10.436,10.436,0,0,1,3.452-2.776,8.164,8.164,0,0,1,2.2-.588,7.56,7.56,0,0,0,1.672-.382l.338-.141.169-.086c.1-.05.192-.1.216-.114a7.085,7.085,0,0,0,.7-.471c.429-.322.89-.7,1.451-1.191a34.535,34.535,0,0,0,2.7-2.608,10.568,10.568,0,0,0,1.249-2.051c.195-.378.4-.77.624-1.171a10.153,10.153,0,0,1,3.035-3.155c.3-.218.595-.432.882-.639l.014-.01c.78-.562,1.516-1.092,2.222-1.672a21.689,21.689,0,0,0,2.7-2.6l.563-.648.76.383a26.236,26.236,0,0,1,4.583,3.125,25,25,0,0,0,2.048,1.525,8.554,8.554,0,0,0,1.036.573l.029.013a4.068,4.068,0,0,0,.479.195,3.194,3.194,0,0,0,.559.17l.18.045a.552.552,0,0,0,.149.028h.026a1.474,1.474,0,0,0,.375-.083,3.414,3.414,0,0,0,.323-.112,3.99,3.99,0,0,1,1.234-.3.76.76,0,0,1,.088,0,2.389,2.389,0,0,1,.5.059,2.136,2.136,0,0,1,.6.232,2.554,2.554,0,0,1,.811.748c.082.116.15.218.2.3a2.343,2.343,0,0,0,.135.193.329.329,0,0,0,.023.025l.048.017c.309.1.679.174,1.072.257.461.1.982.207,1.494.365a5.509,5.509,0,0,1,.762.292,3.337,3.337,0,0,1,.458.261l.133.1a1.937,1.937,0,0,1,.2.179l.063.063a3.226,3.226,0,0,1,.692,1.385c.021.075.043.153.065.223a2.575,2.575,0,0,0,.153.445c0,.019.005.044.2.212.284.247.6.491.924.749l.078.061a13.7,13.7,0,0,1,1.089.933,4.455,4.455,0,0,1,.977,1.349,8.544,8.544,0,0,1,.6,2.592q.017.144.034.284l.017.157a11.626,11.626,0,0,0,.384,2.261,4.4,4.4,0,0,0,1.229,1.833,7.728,7.728,0,0,0,2.079,1.186c.157.067.316.133.479.2a13.6,13.6,0,0,1,2.046.99,5.472,5.472,0,0,1,1.523,1.4l.24-.215.019-.017a4.124,4.124,0,0,0,.988-1.087l.5-.986.691.868a17.936,17.936,0,0,1,1.637,2.363,8.936,8.936,0,0,1,.76,1.737,2.942,2.942,0,0,1,.57-.251,2.525,2.525,0,0,1,.693-.094,3.273,3.273,0,0,1,1.1.2,8.4,8.4,0,0,1,2.588,1.7c.491.434.958.889,1.41,1.329.228.221.461.449.693.669a12.72,12.72,0,0,0,1.042.908,1.972,1.972,0,0,0,.839.422.11.11,0,0,0,.045-.008l.231-.106.217.2a33.543,33.543,0,0,1,6.819,9.328c.261.5.513,1.005.756,1.5a27.152,27.152,0,0,0,1.967,3.525,13.806,13.806,0,0,0,1.046,1.279c.262.3.532.6.781.917a4.54,4.54,0,0,1,.881,1.721c.152-.239.292-.474.427-.718.492-.87.906-1.775,1.345-2.733l.213-.463a24.737,24.737,0,0,1,1.72-3.279,10.035,10.035,0,0,1,2.634-2.779c.82-.586,1.673-1.083,2.5-1.563a17.365,17.365,0,0,0,3.423-2.368,18.83,18.83,0,0,0,1.38-1.575c.3-.368.609-.747.926-1.1.751-.875,1.541-1.763,2.416-2.714l4.922-5.28c.192-.216.393-.434.588-.645a13.473,13.473,0,0,0,1.633-2c.351-.561.676-1.15,1.02-1.774.242-.438.491-.89.753-1.336a11.56,11.56,0,0,1,2.386-3.076,3.906,3.906,0,0,1,2.072-.907,1.7,1.7,0,0,1,.339-.032,4.051,4.051,0,0,1,.61.062h.006c.074.011.148.023.222.032a1.315,1.315,0,0,1,.154.047l.079.027a12.373,12.373,0,0,1,2.043-2.58c.175-.175.351-.349.521-.517l.008-.008a14.874,14.874,0,0,0,1.924-2.146,7.334,7.334,0,0,0,1.094-3.181c.079-.489.14-.979.2-1.5.093-.743.188-1.511.342-2.3a8.57,8.57,0,0,1,.632-2.044,11.163,11.163,0,0,1,.588-1.02c.145-.23.28-.447.386-.652a5.135,5.135,0,0,0,.515-1.542c.164-.7.342-1.324.509-1.9.4-1.353.769-2.5,1.244-3.7l.1-.241.125-.262.044-.086a3.914,3.914,0,0,1,.208-.374,6.184,6.184,0,0,1,.674-.93,8.973,8.973,0,0,1,1.592-1.424c.58-.415,1.165-.769,1.731-1.112.523-.317,1.016-.616,1.469-.94a8.166,8.166,0,0,1,2.39-1.115c1.081-.956,2.256-1.937,3.7-3.087l.092-.2a12.923,12.923,0,0,1,1.561-2.719,35.74,35.74,0,0,1,2.776-2.815c.968-.893,1.981-1.765,2.875-2.535l.013-.011a49.075,49.075,0,0,0,5.361-5.116l.722-.845.827.74A67.536,67.536,0,0,1-242,70.869c1.663,1.849,3.181,3.639,4.642,5.475l.069.086.06.123a38.758,38.758,0,0,0,2.11,3.752,17.555,17.555,0,0,0,2.563,3.264c.14.14.328.3.511.457.1.084.2.17.292.253l.84.729,1.681,1.454,3.359,2.911.189.164.106.235c1.713,3.808,3.456,7.5,5.179,10.959.9,1.812,1.831,3.619,2.777,5.369.788,1.457,1.844,3.359,3.032,5.147a7.773,7.773,0,0,0,1.731,1.992,8.691,8.691,0,0,0,2.153,1.109l.041.017.24.1a16.018,16.018,0,0,1,2.946,1.549,8.249,8.249,0,0,1,1.8,1.9c.153.2.3.4.44.565a2.61,2.61,0,0,0,1.735,1.16l.031.006h.005l.029,0,.19.007c.041,0,.086,0,.132.006s.109.006.154.006a.477.477,0,0,0,.069,0,.778.778,0,0,1,.161-.029.885.885,0,0,0,.249-.054,2.925,2.925,0,0,0,.97-.481,11.963,11.963,0,0,0,1.335-1.182c.257-.25.522-.508.811-.77a6.9,6.9,0,0,1,3.21-1.745l1.018-.2.355.973a16.584,16.584,0,0,0,2.807,4.357c.549.691,1.116,1.4,1.654,2.168l.58.832c.194.263.385.5.57.715a10.323,10.323,0,0,0,1.331,1.278l1.623,1.242c.253.2.522.421.846.7l.231.229.237.273c.136.163.22.279.319.413l.048.065c.287.4.548.789.8,1.166l0,.005c.126.189.251.375.377.559a15.792,15.792,0,0,0,1.133,1.528,2.251,2.251,0,0,0,.317.311l.02.016.181.014c.074,0,.1-.014.1-.025a.058.058,0,0,0,.007-.012c0-.008.006-.013.017-.013l.013,0a5.489,5.489,0,0,0,1.409-.742,24.447,24.447,0,0,0,2.935-2.576c.582-.583,1.127-1.168,1.7-1.788l.007-.007c.36-.386.731-.786,1.119-1.191l1.38-1.442.568,1.941a7.456,7.456,0,0,0,1.419,2.442,18.4,18.4,0,0,0,2.193,2.212,16.266,16.266,0,0,0,2.5,1.812,24.267,24.267,0,0,0,2.322,1.08l.011,0,.579.247a15.44,15.44,0,0,1,3.133,1.725c.948.712,1.82,1.48,2.621,2.2l.545.493.02.018c.646.586,1.255,1.14,1.888,1.673.26.223.531.439.818.668a18.909,18.909,0,0,1,1.78,1.551c.154.153.3.319.447.479l.021.024a5.086,5.086,0,0,0,.624.04,4.239,4.239,0,0,0,.85-.084,10.994,10.994,0,0,0,3.015-1.159,36.337,36.337,0,0,0,5.369-3.73c1.655-1.349,3.3-2.782,4.886-4.168l.125-.109,2.516-2.175a23.148,23.148,0,0,1,2.74-2c.585-.382,1.2-.775,1.734-1.122,1.252-.805,2.546-1.638,3.771-2.5.852-.593,1.723-1.244,2.588-1.935a27.649,27.649,0,0,0,2.36-2.112c.356-.361.683-.721,1.061-1.168.329-.4.647-.807.972-1.248.647-.888,1.268-1.853,1.8-2.687a38.328,38.328,0,0,1,3.987-5.513l2.135-2.33-.075,3.154a2.654,2.654,0,0,0,.152.745l.279-.153c1.98-1.083,4.027-2.2,5.949-3.375a35.768,35.768,0,0,0,6.719-5.174l.743-.74.8.628a5.636,5.636,0,0,1,.846.807,6.284,6.284,0,0,1,.627.934,10.854,10.854,0,0,1,.753,1.865l.053.171c.176.572.342,1.112.529,1.6a31.166,31.166,0,0,1,4.047-2.98,53.237,53.237,0,0,1,5.674-3.1l.762-.361.458.671a18.306,18.306,0,0,0,1.452,1.866,9.4,9.4,0,0,0,1.688,1.512,1.96,1.96,0,0,0,.3.184c.051.028.1.056.156.087a1.364,1.364,0,0,0,.289.134c.054.02.11.041.165.066a2.14,2.14,0,0,0,.761.128h.095a.873.873,0,0,1,.163-.037.672.672,0,0,0,.222-.063.751.751,0,0,1,.148-.072.564.564,0,0,0,.225-.136,1.359,1.359,0,0,1,.143-.115.96.96,0,0,0,.216-.2l.332-.392.786-.923.532,1,.294.559c.742.876,1.441,1.76,2.116,2.615a55.782,55.782,0,0,0,3.9,4.575c.078.069.154.141.228.211s.17.162.258.238c1.672,1.472,3.488,2.824,5.356,4.195l.424.312.083.061.605.446c.669.492,1.456,1.074,2.226,1.664l.019-.015a.23.23,0,0,0,.025-.021,2.593,2.593,0,0,0,.512-.647,3.618,3.618,0,0,0,.278-.532c.039-.086.079-.173.12-.257l.367-.749.62.612.834.824.913.737a16.163,16.163,0,0,0,2.023,1.224,30.421,30.421,0,0,0,2.93,1.26v1.746a35.6,35.6,0,0,1-3.614-1.74,17.585,17.585,0,0,1-2.142-1.449c-.1-.092-.207-.183-.311-.274-.219-.192-.446-.391-.661-.6l-.323-.361-.039.062a1.262,1.262,0,0,1-.072.108,3.639,3.639,0,0,1-.758.826,3.239,3.239,0,0,1-1.636.681c-.432.236-.838.427-1.231.611A5.963,5.963,0,0,0-65.32,125.9c-.224.576-.418,1.18-.606,1.765l-.078.243c-.069.2-.136.407-.2.611l0,.009c-.181.552-.369,1.122-.591,1.669q-.173.694-.348,1.38l0,.005h0c-.31,1.221-.6,2.375-.868,3.563-.046,1.485-.19,3.016-.329,4.5a53.424,53.424,0,0,0-.34,6.17,41.638,41.638,0,0,1-3.164-4.209c-.687-1-1.4-2.031-2.139-2.978a17.01,17.01,0,0,0-4.546-3.948c-.494-.331-1-.673-1.555-1.064a12.957,12.957,0,0,1-2.922-3.126c-.378-.509-.767-1.033-1.2-1.548a7.024,7.024,0,0,0-2.709-1.768,5.392,5.392,0,0,1-2.478-1.7,2.885,2.885,0,0,0-1.868,1.444c-.39.844-.272,1.956.37,3.5a4.534,4.534,0,0,1,.487-.713c-.118-.127-.155-.185-.15-.2h0a3.507,3.507,0,0,1,1.1,1.8,12.256,12.256,0,0,0,1.748,3.708,9.085,9.085,0,0,0,2.6,2.372,6.108,6.108,0,0,1,2.479,2.636,9.94,9.94,0,0,1,.782,4.568,11.311,11.311,0,0,0,.509,3.918c.795,2.061,1.259,2.408,2,2.408a5.945,5.945,0,0,0,.773-.076l.019,0,.166-.023a9.851,9.851,0,0,1,1.358-.1,9.455,9.455,0,0,1,1.68.156,3.073,3.073,0,0,0,.7,2.46,4.206,4.206,0,0,0,3.168,1.135,7.26,7.26,0,0,0,4.024-1.186,8.807,8.807,0,0,0,2.185,3.773c1.064,1.3,2.164,2.646,2.286,4.3.158,2.157-1.21,3.682-2.66,5.3a10.163,10.163,0,0,0-2.651,4.106c-1.25,5.061,1.459,8.385,4.328,11.9a30.239,30.239,0,0,1,3.689,5.242,28.344,28.344,0,0,1,4.553,5.6c.562.828,1.141,1.682,1.744,2.481a23.865,23.865,0,0,0,2.482,2.9v1.482a23.473,23.473,0,0,1-3.415-3.673c-.67-.859-1.3-1.762-1.913-2.635a26,26,0,0,0-4.4-5.259,12.5,12.5,0,0,0-4.418-2.047l-.056-.017a13.265,13.265,0,0,1-4.845-2.225,8.584,8.584,0,0,1-1.242-1.408c-.171-.227-.332-.441-.5-.636a2.722,2.722,0,0,0-1.744-1.076,8.47,8.47,0,0,0-1.672-.147,27.7,27.7,0,0,0-2.824.2l-.014,0-.378.039-.326.035c-.738.081-1.5.164-2.285.2-.18.013-.366.019-.553.019a15.242,15.242,0,0,1-1.811-.14l-.344-.04a29.467,29.467,0,0,1-5.144-1.217,36.516,36.516,0,0,1-9.377-4.734,31.851,31.851,0,0,1-4.065-3.388c-.939-.939-1.819-1.926-2.669-2.88l-.006-.007c-.275-.309-.56-.628-.84-.938a31.986,31.986,0,0,0-3.558-3.5,8.493,8.493,0,0,0-4.162-1.978c-.616-.116-1.255-.182-1.932-.252a19.444,19.444,0,0,1-3.25-.529c-.072-.023-.15-.045-.228-.068-.166-.048-.338-.1-.462-.15-.06-.025-.125-.048-.189-.071a3.6,3.6,0,0,1-.506-.214,2.6,2.6,0,0,1-.805-.584,2.33,2.33,0,0,1-.543-.937,4.738,4.738,0,0,1-.122-.484c-.015-.069-.026-.123-.037-.16l-.04-.011-.046-.013a1.391,1.391,0,0,0-.178-.022l-.112-.011-.08-.007-.014,0-.016,0,.05.006-.014,0-.05.008a3.992,3.992,0,0,0-1.607,1.018c-.211.183-.417.371-.636.57-.422.384-.856.78-1.355,1.165-.173.134-.376.274-.62.427l-.355.2a4.476,4.476,0,0,1-.481.2,1.57,1.57,0,0,1-.287.082l-.088.019-.078.017-.035.008h0l0,0-.151.02-.254.011h-.062a3.14,3.14,0,0,1-.9-.146,7.153,7.153,0,0,1-1.563-.823,3,3,0,0,0-.717-.394.2.2,0,0,0-.142-.038,3.29,3.29,0,0,0-1.4.535,13.586,13.586,0,0,0-1.87,1.462c-.235.2-.465.412-.708.633l0,0a11.953,11.953,0,0,1-3.768,2.589l-.877.342-.437-.868a51.989,51.989,0,0,0-3.98-6.3c-1.074-1.536-2.184-3.123-3.178-4.8a32.477,32.477,0,0,1-1.59-3.048c-.46-1.012-.88-2.046-1.305-3.1a27.29,27.29,0,0,0-1.306-2.9,10.365,10.365,0,0,0-1.8-2.394,16.823,16.823,0,0,0-1.582-1.363c-.287-.228-.584-.464-.88-.713-.686-.575-1.343-1.168-1.979-1.742l-.028-.025-.509-.458c-.761-.682-1.586-1.4-2.466-2.061a13.309,13.309,0,0,0-2.684-1.452c-.2-.086-.4-.171-.609-.258l-.015-.006a25.586,25.586,0,0,1-2.5-1.163,18.13,18.13,0,0,1-2.88-2.061,20.429,20.429,0,0,1-2.484-2.493,13.243,13.243,0,0,1-1.086-1.53l-.1.112a5.324,5.324,0,0,1-.062,1.916,14.161,14.161,0,0,1-.523,1.822c-.1.3-.2.6-.29.9a7.9,7.9,0,0,0-.4,2.645,8.958,8.958,0,0,0,.137,1.327c.011.064.022.129.034.2a5.312,5.312,0,0,1,.111,1.334,4.8,4.8,0,0,1-.422,1.553c-.11.257-.22.474-.318.667-.13.248-.251.459-.38.664-.3.483-.63.923-.95,1.348-.249.332-.484.645-.692.96a5.992,5.992,0,0,0-.927,2.333c-.221.9-.45,1.828-.724,2.763a15.636,15.636,0,0,1-2.573,5.387,10.807,10.807,0,0,1-2.279,2.121c-.447.318-.922.594-1.381.861-.369.215-.718.417-1,.615a4.924,4.924,0,0,0-1.473,1.764c-.3.54-.575,1.153-.861,1.8-.092.209-.185.421-.282.636a14.364,14.364,0,0,1-1.515,2.632,18.635,18.635,0,0,1-1.929,2.308,29.862,29.862,0,0,1-4.594,3.613l-.291.2a2.739,2.739,0,0,1-.266.161l-.217.106-.688.293-.519.227.022.039a2.12,2.12,0,0,1,.231.571,1.505,1.505,0,0,1,.028.523l-.027.16-.005.022-.012.042-.075.21-.009.02-.018.039-.038.078-.3.643a9.075,9.075,0,0,1-1.721,2.688,9.938,9.938,0,0,1-1.2,1.054c-.391.292-.814.574-1.211.834a21.933,21.933,0,0,1-5.333,2.615,12.31,12.31,0,0,1-2.345.413c-.2.021-.4.043-.59.067a8.852,8.852,0,0,0-1.221.225,4.2,4.2,0,0,0-.512.176,1.368,1.368,0,0,0-.195.091l-.092.047a1.058,1.058,0,0,0-.146.081l-.072.043a10.62,10.62,0,0,0-1.514,1.292,10.349,10.349,0,0,1-2.988,2.22,1.468,1.468,0,0,0-.379.223,2.212,2.212,0,0,0-.326.391,1.933,1.933,0,0,0-.432.961,8.223,8.223,0,0,0-.09,1.014c-.005.1-.01.206-.016.31-.008.084-.014.169-.02.254a3.563,3.563,0,0,1-.333,1.426,2.291,2.291,0,0,1-1.549,1.071,5,5,0,0,1-1.2.137c-.123,0-.247,0-.378-.011a7.028,7.028,0,0,1-2.46-.581,5.639,5.639,0,0,0-.2,1.71c0,.154,0,.313,0,.467v.01a9.01,9.01,0,0,1-.134,1.987,4.127,4.127,0,0,1-.19.627,3.448,3.448,0,0,1-.3.563,3.178,3.178,0,0,1-.95.836c-.128.082-.26.157-.387.231a5.388,5.388,0,0,0-.63.4,1.314,1.314,0,0,0-.21.188l.4.95a34.793,34.793,0,0,1,1.248,3.638c.147.488.3.993.458,1.482a17.051,17.051,0,0,0,1.972,4.5,6.152,6.152,0,0,0,.7.858l.365.338.261.2.193.122a14.094,14.094,0,0,0,2.185,1.011l.189.075a19.508,19.508,0,0,1,2.367,1.065l.121.071c.175.1.356.208.531.335.038.027.073.051.107.075.072.049.139.094.23.169l.271.221a12.685,12.685,0,0,1,1.051,1.034l.007.008c.162.175.32.351.473.52l.007.008a17.15,17.15,0,0,0,1.246,1.293,3.644,3.644,0,0,0,.8.564l.086.043.081.027.009,0h.006l.049,0a1.9,1.9,0,0,0,.217.01c.073,0,.154,0,.24-.008.157-.006.3-.023.465-.042a8.6,8.6,0,0,1,.959-.07h.007c.042,0,.122.007.178.014h.009a1.4,1.4,0,0,1,.253.048l.168.053.1.044.074.035.107.05c.061.028.123.056.211.105a7.918,7.918,0,0,1,.7.418,14.092,14.092,0,0,1,2.178,1.891c.388.4.756.8,1.111,1.193.24.264.465.51.693.753a15.543,15.543,0,0,0,1.776,1.674,4.348,4.348,0,0,0,.859.519,1.287,1.287,0,0,0,.427.09.5.5,0,0,0,.109-.011c.1,0,.253-.168.414-.344.035-.066.074-.128.112-.188s.087-.138.127-.216l.214-.488.522-1.185,1.069.547a14.021,14.021,0,0,1,1.692,1.022,18.318,18.318,0,0,1,1.489,1.221,26.771,26.771,0,0,1,2.534,2.738c.71.865,1.384,1.755,2.037,2.616.8,1.052,1.549,2.045,2.359,2.994a9.65,9.65,0,0,0,1.122,1.162,13.445,13.445,0,0,0,1.328.982c.233.156.469.308.72.468a16.333,16.333,0,0,1,2.33,1.7l.186.175.116.117.077.081.055.059c.081.088.165.178.269.31a7.177,7.177,0,0,1,.612.857,14.173,14.173,0,0,1,.888,1.718l.175.4c.286.65.556,1.261.841,1.844a1.777,1.777,0,0,1,.545-.111l.064,0h.143a2.488,2.488,0,0,1,.783.1,3.044,3.044,0,0,1,.781.284,9.208,9.208,0,0,1,2.286,1.669c.816.778,1.543,1.614,2.246,2.423.4.46.776.893,1.162,1.309.316.33.741.718,1.151,1.093.2.18.419.383.618.57l1.844,1.7,3.685,3.4,3.7,3.386.156.141c1.174,1.061,2.387,2.156,3.539,3.3a31.666,31.666,0,0,1,3.378,3.859q.287.4.578.8c.782,1.074,1.591,2.184,2.312,3.361a13.34,13.34,0,0,1,1.183,2.359,4.527,4.527,0,0,1,.3,1.419,2.654,2.654,0,0,1-.322,1.59,1.551,1.551,0,0,1-.833.608,3.324,3.324,0,0,1-.775.108l-.18,0h-.018a4.45,4.45,0,0,0-.917.074.949.949,0,0,0-.641.457l-.032.042-.006.009-.049.123c-.012.032-.026.067-.041.1a1.08,1.08,0,0,0-.064.179.454.454,0,0,1-.007.156.594.594,0,0,0,0,.238,4.894,4.894,0,0,0,.764,2.081,14.567,14.567,0,0,0,1.419,1.955,15.175,15.175,0,0,0,3.65,3.212c.722.458,1.494.879,2.241,1.286.693.378,1.41.769,2.1,1.2a11.492,11.492,0,0,1,3.731,3.445c.893,1.417,1.721,2.838,2.533,4.343a18.253,18.253,0,0,1,1.833,4.615Zm-74.46-15.264h0c-.146-.977-.291-1.975-.431-2.94l-.008-.055c-1.477-10.19-3-20.728-9.076-29.724a22.039,22.039,0,0,0-3.846-4.182c-1.876-1.694-3.648-3.293-4.5-6.493-.343-1.289.031-3.936.465-7,.514-3.634,1.1-7.753.542-10.4.121-.475-.323-1.345-.938-2.55a27.035,27.035,0,0,1-2.11-5.039,14.745,14.745,0,0,1-.345-6.993c2.138,3.446,4.033,7.3,5.866,11.017a128.5,128.5,0,0,0,6.136,11.474,27.925,27.925,0,0,1,1.962,4.214c1.567,3.879,3.344,8.276,7.812,10.049a11.237,11.237,0,0,0,4.269.753,33.443,33.443,0,0,0,4.28-.371l.089-.011a35.652,35.652,0,0,1,4.544-.382c.428,0,.849.015,1.252.044.9,2.271,1.765,4.5,2.6,6.649,2.686,6.912,5.222,13.44,8.509,20.443-2.362-4.762-8.3-10.069-13.045-10.069a5.818,5.818,0,0,0-5.157,3.133c-2.213-3.712-3.944-4.365-6.762-4.365-.523,0-1.075.022-1.593.045a33.221,33.221,0,0,0,.021,10.624C-209.884,275.75-209.449,279.59-210.88,283.813Zm63.788-11.1,0,0a83.447,83.447,0,0,1-5.934-8.857c-1.4-2.3-2.855-4.681-4.436-6.881a17.147,17.147,0,0,0-4.771-4.312c-.792-.542-1.61-1.1-2.471-1.793-1.158-.928-2.245-1.973-3.3-2.984a45.082,45.082,0,0,0-3.718-3.318,28.451,28.451,0,0,1-4.571-4.813,22.212,22.212,0,0,0-5.4-5.322c-3.575-2.18-5.112-4.1-7.409-7.841a12.517,12.517,0,0,1,3.675,2.462,11.285,11.285,0,0,0,4.843,2.865,19.391,19.391,0,0,1,5.074,1.879,18.408,18.408,0,0,1,4.235,3.384c1.241,1.282,2.427,2.577,3.573,3.83,3.973,4.341,7.722,8.438,13.108,11.323.964.517,1.851,1.065,2.592,1.533-.737-.274-1.485-.518-2.209-.753a20.415,20.415,0,0,1-5.566-2.446c1.724,1.535,3.413,3.173,5.046,4.758,1.612,1.565,3.279,3.182,4.976,4.7-.059.111-.114.21-.163.3-.425.771-.49.889.352,1.858-.268-.27-.54-.555-.8-.83l-.006-.006a13.442,13.442,0,0,0-4.383-3.476c.62,2.463,2.2,4.725,3.724,6.912,1.708,2.449,3.474,4.98,3.941,7.83Zm-246.929-8.821a2.57,2.57,0,0,1-1.2-.277c1-.783,1.962-1.492,2.9-2.178,3.985-2.925,7.423-5.448,9.45-11.211.567-1.612,1-3.353,1.422-5.037a46.682,46.682,0,0,1,1.933-6.419c1.783-4.341,1.425-6.961.581-11.6a13.4,13.4,0,0,1,3.17,4.573,12.628,12.628,0,0,0,1.385,2.372c1.2-3.8,3.033-8.85,4.97-11.35a5.488,5.488,0,0,1,2.233-1.671,8.053,8.053,0,0,0,1.462-.851,11.172,11.172,0,0,0,4.006-7.237c-.215,3.673-2.158,6.961-4.037,10.141-.848,1.434-1.648,2.789-2.3,4.176a22.334,22.334,0,0,0-1.429,4.851,23.79,23.79,0,0,1-1.312,4.6,38.307,38.307,0,0,1-2.4,4.4c-.542.9-1.1,1.823-1.6,2.76a21.466,21.466,0,0,0-1.328,3.26,14.412,14.412,0,0,1-2.062,4.334,24.446,24.446,0,0,1-3.793,3.7c-.647.547-1.316,1.113-1.925,1.685-.223.209-.487.467-.793.764C-386.93,259.853-391.082,263.894-394.022,263.894Zm256.7-2.429h-.091c-2.082,0-4.442-1.38-6.265-2.582.417.19.866.391,1.33.568.413.157.854.319,1.243.463a35.99,35.99,0,0,1,3.783,1.55Zm-6.368-2.588a46.129,46.129,0,0,1-6.222-3.648c-.681-.449-1.384-.913-2.091-1.361a19.83,19.83,0,0,1,1.989.847,35.019,35.019,0,0,1,4.1,2.627l.007.005c.724.509,1.472,1.035,2.22,1.528Zm-202.743-25.221h0c-.131-.9-.262-1.961-.413-3.19v-.007c-1.01-8.215-2.7-21.963-9.115-22.118h1c1.183-3.174,4.494-8.342,8.434-13.166,4.307-5.273,8.289-8.889,10.926-9.92.2,4.183,2.572,7.908,4.862,11.511,2.214,3.483,4.5,7.084,4.954,11.182a18.827,18.827,0,0,0-10.49-5.538c-5.784,5.052-7.087,13.538-8.348,21.745A86.59,86.59,0,0,1-346.433,233.655Zm218.279-1.828a24.068,24.068,0,0,1-2.386-2.693c-.552-.689-1.122-1.4-1.736-2.05a20.88,20.88,0,0,0-3.311-2.624,15.626,15.626,0,0,1-4.039-3.508,9.482,9.482,0,0,1-1.11-2.539,12.342,12.342,0,0,0-.844-2.13,13.766,13.766,0,0,0-1.783-2.351,9.952,9.952,0,0,1-2.2-3.306l.413.232a12.387,12.387,0,0,0,3.361,1.489c.743-2.119.266-5.2-.155-7.912a36.085,36.085,0,0,1-.451-3.682c-.076-1.71-.486-6.372-.9-8.555a25.967,25.967,0,0,0,2.025,3.181,14.857,14.857,0,0,1,3.018,6.12,21.727,21.727,0,0,1,.214,3.5,11.531,11.531,0,0,0,1.172,6.052,124.748,124.748,0,0,1,8.715,20.776Zm27.5-4.467a46.494,46.494,0,0,1-2.479-7.612,56.9,56.9,0,0,0-1.962-6.413,42.818,42.818,0,0,0-5.44-9.3l0-.006c-.472-.667-.96-1.356-1.453-2.071-.4-.58-.814-1.153-1.214-1.707-2.074-2.871-4.033-5.583-3.984-9.046a43.2,43.2,0,0,0-1.158-11.383c-.1-.406-.226-.869-.363-1.359-.576-2.07-1.292-4.643-.66-6.274.833,1.8,1.8,3.623,2.735,5.387,1.022,1.927,2.077,3.918,2.958,5.88a21,21,0,0,1,.966,3.152c.673,2.637,1.369,5.363,3.092,5.363a2.038,2.038,0,0,0,.732-.149c2.222-.86,4.435-5.167,4.459-7.18-.02,2.618-.089,5.235-.156,7.766-.315,11.9-.612,23.144,3.934,34.955Zm-90.327-.438h0a25.535,25.535,0,0,1-5.39-3.815c-2.523-2.128-5.132-4.328-8.371-4.71.042.374.052.786.061,1.185a9.523,9.523,0,0,0,.131,1.656,7.381,7.381,0,0,1-1.468-2.913,9.139,9.139,0,0,0-1.195-2.63,12.61,12.61,0,0,0-3.172-2.614,20.7,20.7,0,0,1-1.8-1.284c-2.346-1.961-4.074-4.7-5.745-7.345a39.269,39.269,0,0,0-4.319-5.984,5.844,5.844,0,0,1,1.517-.463c.2,0,.228.115.265.289.008.039.019.087.032.136a9.069,9.069,0,0,1,4.2,2.333,19.313,19.313,0,0,0,1.956,1.45c-.563-1.075-.23-1.466.155-1.918a2.121,2.121,0,0,0,.581-1.1,9.411,9.411,0,0,0-.29-3.269,14.229,14.229,0,0,1-.371-2.724c1.091,1.95,2.128,4.117,3.132,6.214,1.878,3.922,3.819,7.977,6.333,11.184a17.018,17.018,0,0,0,4.274,3.558,18.62,18.62,0,0,1,3.976,3.189,27.2,27.2,0,0,1,3.621,5.991c.589,1.2,1.2,2.432,1.892,3.581Zm5.683-4.2h0c-2.258-1.736-3.7-5.109-4.978-8.086-.579-1.352-1.126-2.63-1.718-3.706a87.577,87.577,0,0,0-6.01-9,49.336,49.336,0,0,0-3.737-4.3c-2.438-2.607-4.958-5.3-5.978-8a2.931,2.931,0,0,0,.766.087,3.069,3.069,0,0,1,.919.12c.949-1.555,1.895-6.743,1.54-7.652.143.317.31.716.5,1.18a25.326,25.326,0,0,0,3.038,5.806c.605.721,1.164,1.315,1.656,1.839a11.261,11.261,0,0,1,3.35,5.677,154.354,154.354,0,0,0,5.728,16.515,19.124,19.124,0,0,0,2.158,3.566c1.4,2,2.855,4.076,2.762,5.955Zm12.5-7.791c-1.138-1.107-2.943-5.659-5.033-10.93-1.564-3.943-3.336-8.412-5-11.785-1.9-3.862-3.391-5.74-4.547-5.74a1.048,1.048,0,0,0-.482.118,5.076,5.076,0,0,0-1.189-2.957,8.282,8.282,0,0,1-1.173-2.275c-.255-.981-.455-2-.648-2.978a32.651,32.651,0,0,0-1.2-4.785,2,2,0,0,0-.068-1.039,6.75,6.75,0,0,1-.167-2.214,17.821,17.821,0,0,0,1.822,2.034,10.63,10.63,0,0,1,2.868,3.885A4.318,4.318,0,0,1-187.6,178a5.385,5.385,0,0,0-.02,1.816,13.006,13.006,0,0,0,1.067,2.745,17.33,17.33,0,0,1,.929,2.2,94.114,94.114,0,0,0,3.84,9.664l.012.027q.361.82.728,1.656c.563,1.288,1.259,2.529,1.932,3.73a42.605,42.605,0,0,1,1.984,3.842c.688,1.587,1.253,3.244,1.8,4.846a47.815,47.815,0,0,0,2.535,6.406Zm-212.591-4.969c-.269-.456-.526-.9-.764-1.322.293.47.543.9.766,1.321ZM-301,206.639h0q0-.4,0-.8A5.908,5.908,0,0,1-301,206.639Zm0-.859a16.328,16.328,0,0,0-1.211-4.44,23.361,23.361,0,0,1-.978-3.01c-.506-2.282-1.17-4.48-1.813-6.6-.386-1.277-.785-2.6-1.146-3.922-1.023-3.756-.067-6.506,1.041-9.689.4-1.147.812-2.333,1.146-3.624-.374,2.278.337,3.995,1.09,5.813a14.157,14.157,0,0,1,1.323,4.813A6.346,6.346,0,0,0-298.513,183c.257-.26.5-.506.743-.732-.337.993-.7,1.852-1.051,2.684a16.1,16.1,0,0,0-1.591,5.812c-.293,5.039-.559,9.979-.588,15.014ZM-131.1,195.105h0c.948-2.756-.655-5.677-2.068-8.254-.5-.91-.971-1.77-1.331-2.6l-.215-.494c-1.28-2.947-5.174-11.914-4.659-12.52l.6.2a11.033,11.033,0,0,0,3.107.736c1.508,0,2.278-1.079,2.5-3.5a36.588,36.588,0,0,1,.792,6.053,46.868,46.868,0,0,0,.549,4.95c.185,1,.418,2,.665,3.066C-130.2,186.879-129.2,191.163-131.1,195.105Zm-42.6-1.766c-.657-1.306-1.281-2.692-1.885-4.033a58.062,58.062,0,0,0-4.062-7.9,52.629,52.629,0,0,1,.9,9.581,74.926,74.926,0,0,0-6.809-23.6,5.184,5.184,0,0,1,2.636,2.952c.318.828.583,1.67.84,2.483a26.63,26.63,0,0,0,1.632,4.276c.806,1.572,1.686,2.983,2.538,4.347a36.656,36.656,0,0,1,2.975,5.409,15.869,15.869,0,0,1,1.235,6.488Zm4.792-.221h0c-.581-7.047-1.617-16.21-4.5-24.587-.347-1.006-.85-2.093-1.382-3.245-1.067-2.306-2.17-4.69-2.185-6.777a13.52,13.52,0,0,1,.747-3.969,12.565,12.565,0,0,0,.74-4.622c0-.712,0-1.091-.014-1.441a48.762,48.762,0,0,1,1.474,8.284c.162,1.344.329,2.731.54,4.045a38.89,38.89,0,0,0,2.436,8.019c.5,1.306,1.024,2.656,1.486,4.078a3.047,3.047,0,0,1,.874-.873,3.31,3.31,0,0,0,.625-.558c.458,1.251.292,3.926.117,6.758-.3,4.866-.643,10.382,1.84,11.282A5.992,5.992,0,0,0-168.906,193.118Zm25.607-.925a11.13,11.13,0,0,1-.512-1.126c.031-.061.064-.092.1-.092.123,0,.263.409.417,1.217Zm-9.624-4.1v0c-.645-6.457-2.472-10.2-5.838-15.257a61.58,61.58,0,0,1-5.837-10.18,23.119,23.119,0,0,0-1.985-3.435,15.964,15.964,0,0,1-2.472-4.854,10.055,10.055,0,0,1,.438-4.9,9.156,9.156,0,0,0,.235-5.608,41.571,41.571,0,0,0-1.628-3.894,24.647,24.647,0,0,1-2.517-7.5c1.454.66,2.823,2.8,4.032,4.687.5.777.968,1.512,1.393,2.057a17.137,17.137,0,0,1,1.721,2.842,8.808,8.808,0,0,0,3.184,3.944,3.017,3.017,0,0,0-1.46,1.885c-.5,2.071,1.142,4.757,2.463,6.915a21.14,21.14,0,0,1,1.112,1.949,47.225,47.225,0,0,1,1.846,5c.532,1.622,1.081,3.3,1.777,4.887a15.7,15.7,0,0,1,1.076,6.335,21.706,21.706,0,0,0,.467,4.645c.2.832.54,1.8.9,2.818.933,2.646,1.99,5.645,1.094,7.666Zm-87.627-4.14h0a14.2,14.2,0,0,1,1.233-4.581,15.4,15.4,0,0,0,1.3-4.875c.014-.337.021-.651.028-.956a8.391,8.391,0,0,1,1.086-4.687,72.13,72.13,0,0,0,6.365-14.165c.85-2.679-.049-4.834-.918-6.919-.779-1.869-1.585-3.8-1.172-6.133a23.586,23.586,0,0,1,2.461-6.328,34.761,34.761,0,0,0,1.876-4.168,41.465,41.465,0,0,0,1.88-12.808,10.387,10.387,0,0,0,1.487,3.506,14.145,14.145,0,0,0,.6,3.723,13.945,13.945,0,0,1,.6,3.936,25.555,25.555,0,0,1-1.607,7.706,11.684,11.684,0,0,1-1.149,2.06,8.8,8.8,0,0,0-1.336,2.671,4.416,4.416,0,0,0,.535,3.363,9.138,9.138,0,0,1,.663,1.667c.6,2.256-.021,4.677-.624,7.019-.22.855-.428,1.663-.576,2.455-.832,4.47-2.334,6.937-4.609,10.672-.211.346-.426.7-.648,1.067-.549.907-1.173,1.82-1.777,2.7a28.877,28.877,0,0,0-3.325,5.761,31.287,31.287,0,0,0-.939,3.1A21.027,21.027,0,0,1-240.55,183.948Zm121.176-11.762v0c-.458-.993-.786-1.758-1.064-2.479.008-.088.015-.142.027-.142s.026.053.056.163a4.826,4.826,0,0,0,1.115,2.1,1.19,1.19,0,0,0-.087.224c-.013.042-.028.09-.045.134ZM-51.5,153.429l0,0a32.8,32.8,0,0,0-2.381-3.127c-2.134-2.585-4.34-5.257-3.965-8.673.655,1.34,3.086,3.5,6.348,5.63v6.173Zm-188.827-20.787h0c.213-.968.38-2.029.558-3.152l.009-.057A18.686,18.686,0,0,1-240.327,132.642Zm.569-3.236h0a23.3,23.3,0,0,0-1.371-9.1,12.507,12.507,0,0,0-3.018-4.637,13.1,13.1,0,0,1-2.62-3.711c-1.011-2.48.882-6.241,1.487-7.335,2.1-3.8,2.158-6.759,2.005-11.183a14.41,14.41,0,0,0-.526-2.532c-.576-2.223-1.294-4.988-.355-6.284a1.86,1.86,0,0,1,1.473-.723,60.708,60.708,0,0,1,3.5,7.676,12.129,12.129,0,0,1,.072,7.474,21.982,21.982,0,0,0-.542,8.554c.059.6.1,1.234.14,1.909a24.1,24.1,0,0,0,.611,4.812,7.37,7.37,0,0,0,1.218,2.242,5.517,5.517,0,0,1,1.222,2.561A3.643,3.643,0,0,1-237.49,122a6.428,6.428,0,0,0-1,1.65A30.788,30.788,0,0,0-239.758,129.407Zm-126.255-12.981a21.147,21.147,0,0,1-.337-7.852,12.14,12.14,0,0,1,.707-2.507c.123-.335.248-.68.37-1.055s.287-.753.434-1.09a4.442,4.442,0,0,0,.316-.845,2.6,2.6,0,0,1,1.078,2.626,2.956,2.956,0,0,1-1.854,2.266c-.894,2.174-.955,6.254-.712,8.457Zm-7.618-15.839h0a8.764,8.764,0,0,0,1.221-1.867C-372.368,99.164-372.756,99.758-373.631,100.587Z"
        transform="translate(427.849 -64.286)" />
</svg>